# xmcd CD database file generated by Grip 2.95
# 
# Track frame offsets:
#       150
#       10817
#       26035
#       37710
#       52437
#       67907
#       84832
#       100827
#       115992
#       132317
#       147250
#       161675
#       178532
# 
# Disc length: 2555 seconds
# 
# Revision: 3
# Processed by: cddbd v1.4b41PL2 Copyright (c) Steve Scherf et al.
# Submitted via: Grip 2.95
# 
DISCID=a709f90d
DTITLE=John Sines Jr. - The Black #3
DYEAR=1900
DGENRE=
TTITLE0=I'll Keep Loving This One
TTITLE1=Georgia Rain
TTITLE2=She Could Bring A Freight Train To A Halt
TTITLE3=The Horse That They Rode In On
TTITLE4=All She Left Me (Was Alone)
TTITLE5=I Should've Told Ellen
TTITLE6=Faded Blue Dreams
TTITLE7=If Those Old Walls Could Talk
TTITLE8=Myria
TTITLE9=Heartache Hardheaded
TTITLE10=Little Girl Blue On The Run
TTITLE11=Here Today Grown Tomorrow
TTITLE12=The Black #3
EXTD=
EXTT0=
EXTT1=
EXTT2=
EXTT3=
EXTT4=
EXTT5=
EXTT6=
EXTT7=
EXTT8=
EXTT9=
EXTT10=
EXTT11=
EXTT12=
PLAYORDER=
